PathFileType	4	(X/Y/Z)	12_2_60_p0_0-339_filt_butterworth.trc
DataRate	CameraRate	NumFrames	NumMarkers	Units	OrigDataRate	OrigDataStartFrame	OrigNumFrames
59.0	59.0	7	27	m	59.0	211	339
Frame#	Time	RHip			RKnee			RAnkle			RBigToe			RSmallToe			RHeel			LHip			LKnee			LAnkle			LBigToe			LSmallToe			LHeel			Neck			Head			Nose			RShoulder			RElbow			RWrist			RThumb			RIndex			RPinky			LShoulder			LElbow			LWrist			LThumb			LIndex			LPinky			
		X1	Y1	Z1	X2	Y2	Z2	X3	Y3	Z3	X4	Y4	Z4	X5	Y5	Z5	X6	Y6	Z6	X7	Y7	Z7	X8	Y8	Z8	X9	Y9	Z9	X10	Y10	Z10	X11	Y11	Z11	X12	Y12	Z12	X13	Y13	Z13	X14	Y14	Z14	X15	Y15	Z15	X16	Y16	Z16	X17	Y17	Z17	X18	Y18	Z18	X19	Y19	Z19	X20	Y20	Z20	X21	Y21	Z21	X22	Y22	Z22	X23	Y23	Z23	X24	Y24	Z24	X25	Y25	Z25	X26	Y26	Z26	X27	Y27	Z27	
211	3.5762711864406778	0.4200753045919971	0.5261615357033275	1.053203326071936	0.46360357767507754	0.5394015927379612	1.506520916313363	0.502902170448261	0.5900330390999187	1.9368510442716143	0.47237106154656877	0.39108730249972967	1.9350591847429368	0.541143932464972	0.42182921694560116	1.9265233346293402	0.4893378859567591	0.6550927998060689	2.0284299823666494	0.226666362530775	0.5224389826928262	1.0710870007485966	0.2662652332974378	0.5362421018535133	1.5255166046549262	0.3150256440847564	0.5734420412845926	1.9449152843836903	0.3260706128480157	0.38321566896687265	1.9375768533728464	0.2555120295846795	0.4188123882286794	1.9372759862413802	0.32744846440831893	0.6250587506520683	2.009343738143002	0.29828014452668117	0.5593039149242461	0.5344608740667736	0.2870987418855306	0.5325465361112249	0.28228744035778774	0.28589420502309626	0.44212714588153096	0.3988510796739538	0.45932031611415636	0.5515613550277342	0.6219850033974683	0.5201803351004114	0.5548324841352062	0.858618513096703	0.5552663217444991	0.49024131049565434	1.098750973220903	0.5189661628315554	0.4535474766470307	1.208860338382039	0.5404153367544814	0.4566133327853816	1.2259936616624598	0.5646816562290758	0.5145546967666683	1.238191793388784	0.15464442687277816	0.5542204544908877	0.643948466573055	0.10850937910287772	0.5923157060254585	0.900507239060377	0.09407588163529364	0.5184440348920345	1.1357710548120896	0.14582279808654913	0.4580113890794988	1.210645390938068	0.10549026327233611	0.48658783600953187	1.2390899398066444	0.09196832638630424	0.5111658121578735	1.2434923997108476
212	3.593220338983051	0.42009068427641943	0.5261173733756734	1.053234123815376	0.4636018405783807	0.5393237701931866	1.5064509967622224	0.5028969200777932	0.5900078353408919	1.9367750357073592	0.4724086105299453	0.3912459243243835	1.9351075943243148	0.541247874212127	0.4215285421931907	1.9263216793611275	0.4896647723195929	0.6549987412317685	2.0258481889531144	0.22635501156820478	0.5223007767850878	1.0693769115634844	0.2659894173837209	0.5349528381888438	1.522888768171301	0.31502938122079177	0.5734327071090564	1.9448957690438264	0.3260554604293847	0.38343731066555825	1.93607581765942	0.2554929663767041	0.4188945504439002	1.9372754355471058	0.32751772980070554	0.6251327781412634	2.0093683160565745	0.297886868433527	0.5547661554914823	0.5323135495724772	0.2867577240104219	0.5313335845096919	0.28227567889429084	0.28588540872365437	0.44211427758471983	0.3987466446568234	0.45932989543164077	0.5514829178397762	0.6219723987216389	0.5230909094058898	0.5556340337668102	0.8573394069031522	0.5572530379154522	0.4909936360743199	1.0979936201829599	0.5229183847460396	0.4534322335364898	1.2068260381280944	0.5428783673128207	0.4635374624367995	1.2286715602237885	0.564714536721879	0.5145977921283631	1.238320271660899	0.15514310954558053	0.5549119782943395	0.6439486299250836	0.1085715712353402	0.5917995187226803	0.9005712437118201	0.09414437277823268	0.5184013194014296	1.1356766619361724	0.1473158736753817	0.46242492342529834	1.2119592923906912	0.10462688974792583	0.49275447811395395	1.239411121621709	0.09256642590703174	0.5129640306419961	1.2437008598600934
213	3.610169491525424	0.4201180520583577	0.526026587751614	1.0532221842317304	0.46361316356372595	0.5392096297276749	1.5063950476747798	0.5028892469469486	0.5899631694493456	1.9366855987045866	0.4724440629188678	0.39138065488296114	1.9351320204000138	0.5412730649555596	0.4215310246171462	1.926312254349685	0.48905932205929453	0.6549203114869476	2.0238310307324596	0.22612564808829183	0.5222218070502711	1.0676966115776292	0.265966168226922	0.5349095716897515	1.5210522752624949	0.31502546624546923	0.5734172477398024	1.9448790853846831	0.3258766526357903	0.38353410583820896	1.9361793488983114	0.255464297605626	0.41897356850221473	1.937315810723495	0.32755390790922817	0.6250830076126914	2.009388365604396	0.2978998119159732	0.5516911560969948	0.5306497018990816	0.2859046084816486	0.5294197464142469	0.28259269198675535	0.2859049809580656	0.44084535800500996	0.39837147201509876	0.4593806165066814	0.5514575329365463	0.6219664980422932	0.525738176234776	0.5561624505740076	0.8568566623354152	0.5583411739705588	0.4917256404980951	1.0980789624392067	0.5252607680052723	0.45335062227868345	1.205963014916866	0.5444567195155101	0.46875792889653306	1.230584297139681	0.5650006124833717	0.5146993236984326	1.2383187881627102	0.15519654066441188	0.5552071070358925	0.6438678580667767	0.1090069241626969	0.5903737413649478	0.9004946808610146	0.0945724882791901	0.5187364451550494	1.1356950405027944	0.14968966306990625	0.4654905874327651	1.2125335373840835	0.10537261770256257	0.49788933295178384	1.239195523988041	0.09236422276860418	0.513603518272058	1.2428988637884477
214	3.6271186440677967	0.4201152692490038	0.5259449596329763	1.0532000514817041	0.463609176396535	0.5390851739319259	1.506348810623224	0.5028821881327389	0.5899386447827024	1.9366263790138465	0.47244155164739177	0.3913886907764195	1.9350982006948916	0.5409746357648341	0.4230072292904	1.9273679735036502	0.4878679130534362	0.6548766722233064	2.023578712642886	0.22600133454490573	0.5222349002236455	1.0667835849122227	0.2658681699227026	0.5351946345979751	1.5203985886528273	0.3150233944322262	0.573397917253928	1.9448511059941374	0.3252284156673941	0.38373132370106255	1.9366647231050158	0.2554416026842066	0.4190157019992622	1.9373435049795305	0.3274322615202777	0.6245509752099898	2.0091521349247787	0.29796852277148106	0.5515428159915743	0.5304327718684942	0.2847711026440201	0.5282464723639797	0.2834827836393927	0.28599895355530774	0.43755845133411925	0.39778847041798593	0.4594599697126417	0.5514706085468062	0.6219605925561873	0.5272784673114773	0.5563715463800735	0.8569202903146029	0.5586165684855376	0.4917574133477407	1.0977347526087278	0.5256937538641921	0.4535718632882531	1.2058690521316358	0.5453253253352842	0.4716428262712706	1.2316334824060444	0.5660126847270983	0.514804182767553	1.2380463823323	0.15510519527043423	0.5552060639346919	0.6438256897300179	0.10988910632672025	0.5891629474633051	0.9001688235653507	0.09561072243361365	0.5195190835333137	1.1358143114796604	0.15256942494255932	0.46761377112346036	1.2126999142639654	0.10722650107883082	0.5013723115342952	1.2390177013142964	0.09198114049732044	0.5140431910403874	1.241726251249368
215	3.6440677966101696	0.4200773596312493	0.5259128809607931	1.0531939269738861	0.46357776196473516	0.5389766503490325	1.5063120290581378	0.5028806985812948	0.5899761540631439	1.9366238874950428	0.47237230108336087	0.39122193000156885	1.9349898520408266	0.5401707653751737	0.4269062667997164	1.9301705929314208	0.48718433108333575	0.6548587822104875	2.025328344289479	0.22594650780562384	0.5220724626771867	1.0673140177635834	0.2655463672980374	0.5353492638147359	1.5203576043348157	0.31503781218698235	0.5733821922556281	1.9447939635814753	0.32425923928550066	0.3840275102759151	1.9359768545047535	0.2554612834595657	0.4190007466271366	1.9373075892703837	0.32700233352405067	0.6230782652525045	2.0083068985109302	0.29798034837824766	0.5543186899972435	0.5319511957330691	0.28387625884691753	0.5286878488398231	0.28476775234264684	0.2862339836422637	0.4331416441204002	0.39752566893510677	0.45943286028193864	0.5514494423037658	0.6219521019532921	0.5268395434307851	0.5563403693217	0.8570311753408618	0.5581529196944177	0.4915864972649584	1.0966785656592737	0.525151111384825	0.4538860225653176	1.205986221669843	0.5457382484279946	0.47254968043014783	1.2320206370251363	0.567535656782848	0.5148757325863338	1.23757871679036	0.15503700974906887	0.5551237603658631	0.6438179723157987	0.11075501165459571	0.5908668672465035	0.8996722136177382	0.09692959185995577	0.5205726698594649	1.1360195500977903	0.1556494984143713	0.46752246416190896	1.2120519928016003	0.10973307326702743	0.5021748246279735	1.2390146751833833	0.09179078877704312	0.5144107745630508	1.240894654945957
216	3.6610169491525424	0.4200228968648994	0.5259502603236959	1.0532234679931516	0.46353659868516117	0.5389283709958115	1.5063096827021751	0.5028846448922633	0.5900477056576829	1.9366620138151815	0.4722716694739354	0.3909865415914044	1.9348521725908334	0.5390935749064258	0.43221994489752324	1.9339572164816143	0.487381538869041	0.6548468685249172	2.028006073756196	0.22561308985544118	0.5215670564324868	1.0692379651768522	0.26513657434357213	0.5352345267963866	1.5203508054390955	0.31506672492820836	0.5733729503354381	1.9447108840205598	0.32385394197825285	0.38419551761583554	1.934508617908526	0.2555487691107874	0.41895274268735355	1.9372220188680083	0.32635618457900545	0.6209532323129826	2.00700348604577	0.29802538348207935	0.5584814173168746	0.5349561779562998	0.28345627973527326	0.5294845595988117	0.2858674071777303	0.2866854751609751	0.42968889924070086	0.39817668000100204	0.45898928082886004	0.5512481316653332	0.6219576368688297	0.5244550197748242	0.5561209927752394	0.8567502569749798	0.5569068480872187	0.49305052871539995	1.095955992829524	0.5244499909821582	0.45411770692061876	1.2062163185648287	0.5460557715437636	0.4726870957864087	1.2321994106780787	0.5687738035778757	0.5148573401834816	1.237301461164998	0.15504075062453296	0.5550783539925429	0.6438196821019352	0.11105821806355909	0.5960788227582253	0.8993473988237781	0.097864562511665	0.5214817731736214	1.1362488531002217	0.15827010837345135	0.4648442591432246	1.2105619827237282	0.11261476796782151	0.49983960502116676	1.238949380503133	0.09183750017861832	0.5146229324375703	1.2406360272969337
217	3.6779661016949152	0.41996988841149385	0.5260018474302091	1.0532830975359695	0.46351083416580985	0.538983201051602	1.5063672718831411	0.5028890335565782	0.590083636725625	1.9367014921360672	0.47222004634385595	0.3908594450119053	1.9347807665802232	0.53825093270891	0.43644020382114196	1.9369568923647171	0.4878700172411521	0.6548268458948053	2.0299975339093344	0.22462104687896023	0.520848749232276	1.0715090816946173	0.26488062601825973	0.5348669459537159	1.5202318449273453	0.315089330911137	0.5733671766802904	1.9446380230337694	0.3248388009379083	0.3842166892937262	1.9335125925715868	0.25567089943229415	0.41892330417947427	1.9371466773480661	0.32601929823135	0.6198703997105772	2.0063211430124577	0.298223752758535	0.561690464181469	0.5388461992475577	0.28336128340217526	0.5287753079845182	0.286378692000053	0.2872710239175972	0.42820514859139525	0.39953257551091326	0.4578963062983811	0.550756764280183	0.6219955553300651	0.5212610890052456	0.5557323168413969	0.8558530929925738	0.554939018481101	0.49793903617636215	1.0972354470372714	0.5233979376450151	0.454275869353303	1.2066305470978462	0.5461815299051223	0.4727979546378571	1.2323323133648307	0.5689776216674992	0.5147136513256871	1.2378744092970708	0.15511445443752725	0.5551045967912388	0.6438199132501051	0.11086405014591397	0.6015031565959182	0.8996139939663559	0.09829001808513507	0.5216870105775657	1.136301795002107	0.15969041838224532	0.4617642553671734	1.2091735091268645	0.11556088400242806	0.494985592264361	1.2383545467762238	0.09195728177833312	0.5147859648030899	1.2407512342234954
